<svg width="20" height="21" viewBox="0 0 20 21" fill="none" xmlns="http://www.w3.org/2000/svg">
<mask id="mask0_6078_6598" style="mask-type:alpha" maskUnits="userSpaceOnUse" x="0" y="0" width="20" height="21">
<rect y="0.5" width="20" height="20" fill="#D9D9D9"/>
</mask>
<g mask="url(#mask0_6078_6598)">
<path d="M11.9937 7.39441C11.9937 6.89149 11.8271 6.48798 11.4937 6.18389C11.1604 5.87979 10.7189 5.72774 10.1692 5.72774C9.82999 5.72774 9.52297 5.80084 9.24812 5.94704C8.97327 6.09324 8.73643 6.30669 8.53759 6.58739C8.35046 6.8564 8.09607 7.01137 7.77444 7.05231C7.4528 7.09324 7.17502 7.00845 6.9411 6.79792C6.77736 6.64587 6.68672 6.45874 6.66917 6.23652C6.65163 6.01429 6.70719 5.80377 6.83584 5.60494C7.21011 5.04353 7.68672 4.60786 8.26566 4.29792C8.84461 3.98798 9.47912 3.83301 10.1692 3.83301C11.3037 3.83301 12.2247 4.15465 12.9323 4.79792C13.6399 5.44119 13.9937 6.2833 13.9937 7.32424C13.9937 7.85055 13.8826 8.32424 13.6604 8.74529C13.4382 9.16634 13.0288 9.66342 12.4323 10.2365C11.9996 10.6459 11.7072 10.9646 11.5551 11.1927C11.4031 11.4207 11.3037 11.681 11.2569 11.9734C11.2101 12.2541 11.0902 12.488 10.8972 12.6751C10.7043 12.8622 10.4733 12.9558 10.2043 12.9558C9.93526 12.9558 9.70426 12.8652 9.51128 12.6839C9.3183 12.5026 9.22181 12.2775 9.22181 12.0084C9.22181 11.5523 9.32122 11.1342 9.52005 10.7541C9.71888 10.3739 10.0522 9.97336 10.5201 9.55231C11.1165 9.02599 11.5113 8.61956 11.7043 8.33301C11.8972 8.04646 11.9937 7.73359 11.9937 7.39441ZM10.1692 17.1663C9.78321 17.1663 9.4528 17.0289 9.17795 16.7541C8.90309 16.4792 8.76567 16.1488 8.76567 15.7628C8.76567 15.3769 8.90309 15.0465 9.17795 14.7716C9.4528 14.4968 9.78321 14.3593 10.1692 14.3593C10.5551 14.3593 10.8855 14.4968 11.1604 14.7716C11.4353 15.0465 11.5727 15.3769 11.5727 15.7628C11.5727 16.1488 11.4353 16.4792 11.1604 16.7541C10.8855 17.0289 10.5551 17.1663 10.1692 17.1663Z" fill="black" fill-opacity="0.56"/>
</g>
</svg>
