<svg width="20" height="21" viewBox="0 0 20 21" fill="none" xmlns="http://www.w3.org/2000/svg">
<mask id="mask0_6078_6589" style="mask-type:alpha" maskUnits="userSpaceOnUse" x="0" y="0" width="20" height="21">
<rect y="0.5" width="20" height="20" fill="#D9D9D9"/>
</mask>
<g mask="url(#mask0_6078_6589)">
<path d="M6.15158 18C5.61006 18 5.14375 17.8165 4.75266 17.4495C4.36156 17.0824 4.16602 16.6282 4.16602 16.0866V6.01444C4.16602 5.55716 4.30741 5.14801 4.5902 4.787C4.873 4.42599 5.24303 4.19735 5.70031 4.10108L11.1155 3.0361C11.5607 2.93983 11.9578 3.0361 12.3068 3.32491C12.6558 3.61372 12.8303 3.98676 12.8303 4.44404V13.0542C12.8303 13.4031 12.722 13.713 12.5054 13.9838C12.2888 14.2545 12.012 14.42 11.675 14.4801L5.98912 15.6173C5.88082 15.6414 5.79056 15.6986 5.71836 15.7888C5.64616 15.8791 5.61006 15.9783 5.61006 16.0866C5.61006 16.219 5.66421 16.3303 5.77251 16.4206C5.88082 16.5108 6.00717 16.556 6.15158 16.556H14.2743V5.72563C14.2743 5.52106 14.3435 5.34958 14.4819 5.21119C14.6203 5.0728 14.7918 5.00361 14.9963 5.00361C15.2009 5.00361 15.3724 5.0728 15.5108 5.21119C15.6492 5.34958 15.7184 5.52106 15.7184 5.72563V16.556C15.7184 16.9531 15.577 17.293 15.2942 17.5758C15.0114 17.8586 14.6714 18 14.2743 18H6.15158ZM7.19851 13.9206C7.36698 13.8845 7.50537 13.8002 7.61367 13.6679C7.72197 13.5355 7.77612 13.3851 7.77612 13.2166V6.05054C7.77612 5.8219 7.68888 5.63538 7.51439 5.49097C7.3399 5.34657 7.13834 5.29844 6.9097 5.34657C6.74123 5.38267 6.60284 5.46691 6.49454 5.59928C6.38623 5.73165 6.33208 5.88207 6.33208 6.05054V13.2166C6.33208 13.4452 6.41932 13.6318 6.59381 13.7762C6.7683 13.9206 6.96987 13.9687 7.19851 13.9206Z" fill="black" fill-opacity="0.56"/>
</g>
</svg>
