<svg width="20" height="21" viewBox="0 0 20 21" fill="none" xmlns="http://www.w3.org/2000/svg">
<mask id="mask0_6078_6593" style="mask-type:alpha" maskUnits="userSpaceOnUse" x="0" y="0" width="20" height="21">
<rect y="0.5" width="20" height="20" fill="#D9D9D9"/>
</mask>
<g mask="url(#mask0_6078_6593)">
<path d="M14.1673 17.1663C13.9312 17.1663 13.7333 17.0865 13.5736 16.9268C13.4138 16.767 13.334 16.5691 13.334 16.333V12.1663C13.334 11.9302 13.4138 11.7323 13.5736 11.5726C13.7333 11.4129 13.9312 11.333 14.1673 11.333H15.834C16.0701 11.333 16.268 11.4129 16.4277 11.5726C16.5875 11.7323 16.6673 11.9302 16.6673 12.1663V16.333C16.6673 16.5691 16.5875 16.767 16.4277 16.9268C16.268 17.0865 16.0701 17.1663 15.834 17.1663H14.1673ZM9.16732 17.1663C8.93121 17.1663 8.73329 17.0865 8.57357 16.9268C8.41385 16.767 8.33398 16.5691 8.33398 16.333V4.66634C8.33398 4.43023 8.41385 4.23231 8.57357 4.07259C8.73329 3.91287 8.93121 3.83301 9.16732 3.83301H10.834C11.0701 3.83301 11.268 3.91287 11.4277 4.07259C11.5875 4.23231 11.6673 4.43023 11.6673 4.66634V16.333C11.6673 16.5691 11.5875 16.767 11.4277 16.9268C11.268 17.0865 11.0701 17.1663 10.834 17.1663H9.16732ZM4.16732 17.1663C3.93121 17.1663 3.73329 17.0865 3.57357 16.9268C3.41385 16.767 3.33398 16.5691 3.33398 16.333V8.83301C3.33398 8.5969 3.41385 8.39898 3.57357 8.23926C3.73329 8.07954 3.93121 7.99967 4.16732 7.99967H5.83398C6.0701 7.99967 6.26801 8.07954 6.42773 8.23926C6.58746 8.39898 6.66732 8.5969 6.66732 8.83301V16.333C6.66732 16.5691 6.58746 16.767 6.42773 16.9268C6.26801 17.0865 6.0701 17.1663 5.83398 17.1663H4.16732Z" fill="black" fill-opacity="0.56"/>
</g>
</svg>
