<svg width="35" height="35" viewBox="0 0 35 35" fill="none" xmlns="http://www.w3.org/2000/svg">
<path d="M0.4 3.2C0.4 1.6536 1.6536 0.4 3.2 0.4H31.8C33.3464 0.4 34.6 1.6536 34.6 3.2V31.8C34.6 33.3464 33.3464 34.6 31.8 34.6H3.2C1.6536 34.6 0.4 33.3464 0.4 31.8V3.2Z" stroke="black" stroke-opacity="0.12" stroke-width="0.8"/>
<path d="M17.5133 24C15.692 24 14.1511 23.3698 12.8907 22.1093C11.6302 20.8489 11 19.308 11 17.4867C11 15.8222 11.5428 14.3779 12.6283 13.1536C13.7139 11.9293 15.1009 11.2147 16.7896 11.0096C16.9464 10.9855 17.0851 11.0066 17.2057 11.073C17.3263 11.1393 17.4228 11.2268 17.4952 11.3353C17.5675 11.4439 17.6067 11.5705 17.6128 11.7153C17.6188 11.86 17.5736 11.9987 17.4771 12.1314C17.272 12.445 17.1182 12.7767 17.0157 13.1265C16.9132 13.4762 16.8619 13.8441 16.8619 14.2301C16.8619 15.3156 17.2419 16.2384 18.0018 16.9982C18.7616 17.7581 19.6844 18.1381 20.7699 18.1381C21.1438 18.1381 21.5147 18.0838 21.8826 17.9752C22.2505 17.8667 22.5791 17.7159 22.8686 17.5229C23.0013 17.4385 23.137 17.3993 23.2757 17.4053C23.4144 17.4113 23.538 17.4445 23.6466 17.5048C23.7672 17.5651 23.8607 17.6556 23.927 17.7762C23.9934 17.8968 24.0145 18.0416 23.9904 18.2104C23.8215 19.8749 23.1129 21.256 21.8645 22.3536C20.6161 23.4512 19.1657 24 17.5133 24ZM17.5133 22.5526C18.5747 22.5526 19.5276 22.2601 20.3719 21.6751C21.2162 21.0901 21.8313 20.3272 22.2173 19.3864C21.9761 19.4467 21.7348 19.495 21.4936 19.5312C21.2524 19.5674 21.0111 19.5855 20.7699 19.5855C19.2863 19.5855 18.0229 19.0638 16.9795 18.0205C15.9362 16.9771 15.4145 15.7137 15.4145 14.2301C15.4145 13.9889 15.4326 13.7476 15.4688 13.5064C15.505 13.2652 15.5533 13.0239 15.6136 12.7827C14.6728 13.1687 13.9099 13.7838 13.3249 14.6281C12.7399 15.4724 12.4474 16.4253 12.4474 17.4867C12.4474 18.8859 12.9419 20.08 13.931 21.069C14.92 22.0581 16.1141 22.5526 17.5133 22.5526Z" fill="black" fill-opacity="0.56"/>
</svg>
