<svg width="20" height="21" viewBox="0 0 20 21" fill="none" xmlns="http://www.w3.org/2000/svg">
<mask id="mask0_6078_6585" style="mask-type:alpha" maskUnits="userSpaceOnUse" x="0" y="0" width="20" height="21">
<rect y="0.5" width="20" height="20" fill="#D9D9D9"/>
</mask>
<g mask="url(#mask0_6078_6585)">
<path d="M10.0007 10.4997C9.08398 10.4997 8.29926 10.1733 7.64648 9.52051C6.99371 8.86773 6.66732 8.08301 6.66732 7.16634C6.66732 6.24967 6.99371 5.46495 7.64648 4.81217C8.29926 4.1594 9.08398 3.83301 10.0007 3.83301C10.9173 3.83301 11.702 4.1594 12.3548 4.81217C13.0076 5.46495 13.334 6.24967 13.334 7.16634C13.334 8.08301 13.0076 8.86773 12.3548 9.52051C11.702 10.1733 10.9173 10.4997 10.0007 10.4997ZM3.33398 15.4997V14.833C3.33398 14.3608 3.45551 13.9268 3.69857 13.5309C3.94162 13.1351 4.26454 12.833 4.66732 12.6247C5.52843 12.1941 6.40343 11.8712 7.29232 11.6559C8.18121 11.4406 9.08398 11.333 10.0007 11.333C10.9173 11.333 11.8201 11.4406 12.709 11.6559C13.5979 11.8712 14.4729 12.1941 15.334 12.6247C15.7368 12.833 16.0597 13.1351 16.3027 13.5309C16.5458 13.9268 16.6673 14.3608 16.6673 14.833V15.4997C16.6673 15.958 16.5041 16.3504 16.1777 16.6768C15.8513 17.0031 15.459 17.1663 15.0007 17.1663H5.00065C4.54232 17.1663 4.14996 17.0031 3.82357 16.6768C3.49718 16.3504 3.33398 15.958 3.33398 15.4997Z" fill="black" fill-opacity="0.56"/>
</g>
</svg>
