<svg width="20" height="21" viewBox="0 0 20 21" fill="none" xmlns="http://www.w3.org/2000/svg">
<mask id="mask0_6078_6581" style="mask-type:alpha" maskUnits="userSpaceOnUse" x="0" y="0" width="20" height="21">
<rect y="0.5" width="20" height="20" fill="#D9D9D9"/>
</mask>
<g mask="url(#mask0_6078_6581)">
<path d="M8.75875 18C8.42125 18 8.13063 17.8875 7.88688 17.6625C7.64313 17.4375 7.49625 17.1625 7.44625 16.8375L7.2775 15.6C7.115 15.5375 6.96188 15.4625 6.81813 15.375C6.67438 15.2875 6.53375 15.1938 6.39625 15.0938L5.23375 15.5812C4.92125 15.7187 4.60875 15.7313 4.29625 15.6188C3.98375 15.5063 3.74 15.3062 3.565 15.0187L2.68375 13.4813C2.50875 13.1938 2.45875 12.8875 2.53375 12.5625C2.60875 12.2375 2.7775 11.9688 3.04 11.7563L4.03375 11.0063C4.02125 10.9188 4.015 10.8344 4.015 10.7531V10.2469C4.015 10.1656 4.02125 10.0812 4.03375 9.99375L3.04 9.24375C2.7775 9.03125 2.60875 8.7625 2.53375 8.4375C2.45875 8.1125 2.50875 7.80625 2.68375 7.51875L3.565 5.98125C3.74 5.69375 3.98375 5.49375 4.29625 5.38125C4.60875 5.26875 4.92125 5.28125 5.23375 5.41875L6.39625 5.90625C6.53375 5.80625 6.6775 5.7125 6.8275 5.625C6.9775 5.5375 7.1275 5.4625 7.2775 5.4L7.44625 4.1625C7.49625 3.8375 7.64313 3.5625 7.88688 3.3375C8.13063 3.1125 8.42125 3 8.75875 3H10.5213C10.8588 3 11.1494 3.1125 11.3931 3.3375C11.6369 3.5625 11.7838 3.8375 11.8338 4.1625L12.0025 5.4C12.165 5.4625 12.3181 5.5375 12.4619 5.625C12.6056 5.7125 12.7463 5.80625 12.8838 5.90625L14.0463 5.41875C14.3588 5.28125 14.6713 5.26875 14.9838 5.38125C15.2963 5.49375 15.54 5.69375 15.715 5.98125L16.5963 7.51875C16.7713 7.80625 16.8213 8.1125 16.7463 8.4375C16.6713 8.7625 16.5025 9.03125 16.24 9.24375L15.2463 9.99375C15.2588 10.0812 15.265 10.1656 15.265 10.2469V10.7531C15.265 10.8344 15.2525 10.9188 15.2275 11.0063L16.2213 11.7563C16.4838 11.9688 16.6525 12.2375 16.7275 12.5625C16.8025 12.8875 16.7525 13.1938 16.5775 13.4813L15.6775 15.0187C15.5025 15.3062 15.2588 15.5063 14.9463 15.6188C14.6338 15.7313 14.3213 15.7187 14.0088 15.5812L12.8838 15.0938C12.7463 15.1938 12.6025 15.2875 12.4525 15.375C12.3025 15.4625 12.1525 15.5375 12.0025 15.6L11.8338 16.8375C11.7838 17.1625 11.6369 17.4375 11.3931 17.6625C11.1494 17.8875 10.8588 18 10.5213 18H8.75875ZM9.6775 13.125C10.4025 13.125 11.0213 12.8688 11.5338 12.3563C12.0463 11.8438 12.3025 11.225 12.3025 10.5C12.3025 9.775 12.0463 9.15625 11.5338 8.64375C11.0213 8.13125 10.4025 7.875 9.6775 7.875C8.94 7.875 8.31813 8.13125 7.81188 8.64375C7.30563 9.15625 7.0525 9.775 7.0525 10.5C7.0525 11.225 7.30563 11.8438 7.81188 12.3563C8.31813 12.8688 8.94 13.125 9.6775 13.125Z" fill="black" fill-opacity="0.56"/>
</g>
</svg>
