<svg width="24" height="24" viewBox="0 0 24 24" fill="none" xmlns="http://www.w3.org/2000/svg">
<g id="Back Arrow_ASF">
<path id="Vector" d="M22 12.3335C22 12.5545 21.9122 12.7665 21.7559 12.9228C21.5997 13.079 21.3877 13.1668 21.1667 13.1668H4.84535L10.9233 19.2437C11.0007 19.3211 11.0621 19.4131 11.104 19.5142C11.1459 19.6154 11.1675 19.7238 11.1675 19.8333C11.1675 19.9428 11.1459 20.0512 11.104 20.1524C11.0621 20.2535 11.0007 20.3454 10.9233 20.4228C10.8459 20.5003 10.7539 20.5617 10.6528 20.6036C10.5516 20.6455 10.4432 20.6671 10.3337 20.6671C10.2242 20.6671 10.1158 20.6455 10.0146 20.6036C9.91349 20.5617 9.82157 20.5003 9.74415 20.4228L2.2444 12.9231C2.16692 12.8457 2.10546 12.7538 2.06352 12.6526C2.02158 12.5515 2 12.443 2 12.3335C2 12.224 2.02158 12.1156 2.06352 12.0144C2.10546 11.9133 2.16692 11.8214 2.2444 11.744L9.74415 4.24421C9.90051 4.08784 10.1126 4 10.3337 4C10.5548 4 10.7669 4.08784 10.9233 4.24421C11.0796 4.40057 11.1675 4.61264 11.1675 4.83377C11.1675 5.0549 11.0796 5.26697 10.9233 5.42333L4.84535 11.5002H21.1667C21.3877 11.5002 21.5997 11.588 21.7559 11.7443C21.9122 11.9006 22 12.1125 22 12.3335Z" fill="#2574C2"/>
</g>
</svg>
