<svg width="24" height="24" viewBox="0 0 24 24" fill="none" xmlns="http://www.w3.org/2000/svg">
<g id="Icon">
<mask id="mask0_7483_95114" style="mask-type:alpha" maskUnits="userSpaceOnUse" x="0" y="0" width="24" height="24">
<rect id="Bounding box" width="24" height="24" fill="#D9D9D9"/>
</mask>
<g mask="url(#mask0_7483_95114)">
<path id="Vector" d="M21 16.55V13.82C21 12.32 19.77 11.09 18.27 11.09H12.82V7.45H14.04C14.37 7.45 14.64 7.18 14.64 6.85V2.6C14.64 2.27 14.37 2 14.04 2H9.79C9.46 2 9.19 2.27 9.19 2.6V6.85C9.19 7.18 9.46 7.45 9.79 7.45H11.01V11.09H5.55C4.05 11.09 2.82 12.32 2.82 13.82V16.55H1.6C1.27 16.55 1 16.82 1 17.15V21.4C1 21.73 1.27 22 1.6 22H5.85C6.18 22 6.45 21.73 6.45 21.4V17.15C6.45 16.82 6.18 16.55 5.85 16.55H4.64V13.82C4.64 13.32 5.05 12.91 5.55 12.91H11V16.55H9.78C9.45 16.55 9.18 16.82 9.18 17.15V21.4C9.18 21.73 9.45 22 9.78 22H14.03C14.36 22 14.63 21.73 14.63 21.4V17.15C14.63 16.82 14.36 16.55 14.03 16.55H12.81V12.91H18.26C18.76 12.91 19.17 13.32 19.17 13.82V16.55H17.97C17.64 16.55 17.37 16.82 17.37 17.15V21.4C17.37 21.73 17.64 22 17.97 22H22.22C22.55 22 22.82 21.73 22.82 21.4V17.15C22.82 16.82 22.55 16.55 22.22 16.55H21Z" fill="url(#paint0_linear_7483_95114)"/>
</g>
</g>
<defs>
<linearGradient id="paint0_linear_7483_95114" x1="3.87105" y1="8.5935" x2="22.4844" y2="22.0403" gradientUnits="userSpaceOnUse">
<stop stop-color="#26AFD2"/>
<stop offset="1" stop-color="#2574C2"/>
</linearGradient>
</defs>
</svg>
