<svg xmlns="http://www.w3.org/2000/svg" width="16" height="16" viewBox="0 0 16 16" fill="none">
  <mask id="mask0_16153_283417" style="mask-type:alpha" maskUnits="userSpaceOnUse" x="0" y="0" width="16" height="16">
    <rect width="16" height="16" fill="#D9D9D9"/>
  </mask>
  <g mask="url(#mask0_16153_283417)">
    <path d="M7.06732 9.20016L5.63398 7.76683C5.51176 7.64461 5.35621 7.5835 5.16732 7.5835C4.97843 7.5835 4.82287 7.64461 4.70065 7.76683C4.57843 7.88905 4.51732 8.04461 4.51732 8.2335C4.51732 8.42239 4.57843 8.57794 4.70065 8.70016L6.60065 10.6002C6.73398 10.7335 6.88954 10.8002 7.06732 10.8002C7.2451 10.8002 7.40065 10.7335 7.53398 10.6002L11.3007 6.8335C11.4229 6.71127 11.484 6.55572 11.484 6.36683C11.484 6.17794 11.4229 6.02239 11.3007 5.90016C11.1784 5.77794 11.0229 5.71683 10.834 5.71683C10.6451 5.71683 10.4895 5.77794 10.3673 5.90016L7.06732 9.20016ZM8.00065 14.6668C7.07843 14.6668 6.21176 14.4918 5.40065 14.1418C4.58954 13.7918 3.88398 13.3168 3.28398 12.7168C2.68398 12.1168 2.20898 11.4113 1.85898 10.6002C1.50898 9.78905 1.33398 8.92239 1.33398 8.00016C1.33398 7.07794 1.50898 6.21127 1.85898 5.40016C2.20898 4.58905 2.68398 3.8835 3.28398 3.2835C3.88398 2.6835 4.58954 2.2085 5.40065 1.8585C6.21176 1.5085 7.07843 1.3335 8.00065 1.3335C8.92287 1.3335 9.78954 1.5085 10.6007 1.8585C11.4118 2.2085 12.1173 2.6835 12.7173 3.2835C13.3173 3.8835 13.7923 4.58905 14.1423 5.40016C14.4923 6.21127 14.6673 7.07794 14.6673 8.00016C14.6673 8.92239 14.4923 9.78905 14.1423 10.6002C13.7923 11.4113 13.3173 12.1168 12.7173 12.7168C12.1173 13.3168 11.4118 13.7918 10.6007 14.1418C9.78954 14.4918 8.92287 14.6668 8.00065 14.6668Z" fill="#4CAF50"/>
  </g>
</svg>