<svg width="16" height="16" viewBox="0 0 16 16" fill="none" xmlns="http://www.w3.org/2000/svg">
<g id="Icon">
<mask id="mask0_14070_112302" style="mask-type:alpha" maskUnits="userSpaceOnUse" x="0" y="0" width="16" height="16">
<rect id="Bounding box" width="16" height="16" fill="#D9D9D9"/>
</mask>
<g mask="url(#mask0_14070_112302)">
<path id="search_activity" d="M8.66732 7.73342L10.6673 9.73342C10.7895 9.85564 10.8507 10.0112 10.8507 10.2001C10.8507 10.389 10.7895 10.5445 10.6673 10.6668C10.5451 10.789 10.3895 10.8501 10.2007 10.8501C10.0118 10.8501 9.85621 10.789 9.73398 10.6668L7.53398 8.46676C7.46732 8.40009 7.41732 8.32509 7.38398 8.24176C7.35065 8.15842 7.33398 8.07231 7.33398 7.98342V5.33342C7.33398 5.14453 7.39787 4.9862 7.52565 4.85842C7.65343 4.73064 7.81176 4.66676 8.00065 4.66676C8.18954 4.66676 8.34787 4.73064 8.47565 4.85842C8.60343 4.9862 8.66732 5.14453 8.66732 5.33342V7.73342ZM10.1673 3.33342C9.93398 3.33342 9.73676 3.25287 9.57565 3.09175C9.41454 2.93064 9.33398 2.73342 9.33398 2.50009C9.33398 2.26675 9.41454 2.06953 9.57565 1.90842C9.73676 1.74731 9.93398 1.66675 10.1673 1.66675C10.4007 1.66675 10.5979 1.74731 10.759 1.90842C10.9201 2.06953 11.0007 2.26675 11.0007 2.50009C11.0007 2.73342 10.9201 2.93064 10.759 3.09175C10.5979 3.25287 10.4007 3.33342 10.1673 3.33342ZM10.1673 14.3334C9.93398 14.3334 9.73676 14.2529 9.57565 14.0918C9.41454 13.9306 9.33398 13.7334 9.33398 13.5001C9.33398 13.2668 9.41454 13.0695 9.57565 12.9084C9.73676 12.7473 9.93398 12.6668 10.1673 12.6668C10.4007 12.6668 10.5979 12.7473 10.759 12.9084C10.9201 13.0695 11.0007 13.2668 11.0007 13.5001C11.0007 13.7334 10.9201 13.9306 10.759 14.0918C10.5979 14.2529 10.4007 14.3334 10.1673 14.3334ZM12.834 5.66676C12.6007 5.66676 12.4034 5.5862 12.2423 5.42509C12.0812 5.26398 12.0007 5.06676 12.0007 4.83342C12.0007 4.60009 12.0812 4.40287 12.2423 4.24176C12.4034 4.08064 12.6007 4.00009 12.834 4.00009C13.0673 4.00009 13.2645 4.08064 13.4257 4.24176C13.5868 4.40287 13.6673 4.60009 13.6673 4.83342C13.6673 5.06676 13.5868 5.26398 13.4257 5.42509C13.2645 5.5862 13.0673 5.66676 12.834 5.66676ZM12.834 12.0001C12.6007 12.0001 12.4034 11.9195 12.2423 11.7584C12.0812 11.5973 12.0007 11.4001 12.0007 11.1668C12.0007 10.9334 12.0812 10.7362 12.2423 10.5751C12.4034 10.414 12.6007 10.3334 12.834 10.3334C13.0673 10.3334 13.2645 10.414 13.4257 10.5751C13.5868 10.7362 13.6673 10.9334 13.6673 11.1668C13.6673 11.4001 13.5868 11.5973 13.4257 11.7584C13.2645 11.9195 13.0673 12.0001 12.834 12.0001ZM13.834 8.83342C13.6007 8.83342 13.4034 8.75287 13.2423 8.59176C13.0812 8.43064 13.0007 8.23342 13.0007 8.00009C13.0007 7.76676 13.0812 7.56953 13.2423 7.40842C13.4034 7.24731 13.6007 7.16676 13.834 7.16676C14.0673 7.16676 14.2645 7.24731 14.4257 7.40842C14.5868 7.56953 14.6673 7.76676 14.6673 8.00009C14.6673 8.23342 14.5868 8.43064 14.4257 8.59176C14.2645 8.75287 14.0673 8.83342 13.834 8.83342ZM1.33398 8.00009C1.33398 6.25564 1.91454 4.75564 3.07565 3.50009C4.23676 2.24453 5.66176 1.53342 7.35065 1.36675C7.52843 1.34453 7.68121 1.39731 7.80898 1.52509C7.93676 1.65287 8.00065 1.8112 8.00065 2.00009C8.00065 2.17787 7.94232 2.33342 7.82565 2.46675C7.70898 2.60009 7.56176 2.67787 7.38398 2.70009C6.03954 2.85564 4.91732 3.43342 4.01732 4.43342C3.11732 5.43342 2.66732 6.62231 2.66732 8.00009C2.66732 9.38898 3.11732 10.5806 4.01732 11.5751C4.91732 12.5695 6.03954 13.1445 7.38398 13.3001C7.56176 13.3223 7.70898 13.4001 7.82565 13.5334C7.94232 13.6668 8.00065 13.8223 8.00065 14.0001C8.00065 14.189 7.93676 14.3473 7.80898 14.4751C7.68121 14.6029 7.52843 14.6556 7.35065 14.6334C5.65065 14.4668 4.22287 13.7556 3.06732 12.5001C1.91176 11.2445 1.33398 9.74453 1.33398 8.00009Z" fill="#D32F2F"/>
</g>
</g>
</svg>
