<svg width="21" height="20" viewBox="0 0 21 20" fill="none" xmlns="http://www.w3.org/2000/svg">
<g id="Icon">
<mask id="mask0_16698_49229" style="mask-type:alpha" maskUnits="userSpaceOnUse" x="0" y="0" width="21" height="20">
<rect id="Bounding box" x="0.5" width="20" height="20" fill="#D9D9D9"/>
</mask>
<g mask="url(#mask0_16698_49229)">
<path id="expand_content" d="M6.33268 14.1665H8.83268C9.06879 14.1665 9.26671 14.2464 9.42643 14.4061C9.58615 14.5658 9.66602 14.7637 9.66602 14.9998C9.66602 15.2359 9.58615 15.4339 9.42643 15.5936C9.26671 15.7533 9.06879 15.8332 8.83268 15.8332H5.49935C5.26324 15.8332 5.06532 15.7533 4.9056 15.5936C4.74588 15.4339 4.66602 15.2359 4.66602 14.9998V11.6665C4.66602 11.4304 4.74588 11.2325 4.9056 11.0728C5.06532 10.913 5.26324 10.8332 5.49935 10.8332C5.73546 10.8332 5.93338 10.913 6.0931 11.0728C6.25282 11.2325 6.33268 11.4304 6.33268 11.6665V14.1665ZM14.666 5.83317H12.166C11.9299 5.83317 11.732 5.75331 11.5723 5.59359C11.4125 5.43386 11.3327 5.23595 11.3327 4.99984C11.3327 4.76373 11.4125 4.56581 11.5723 4.40609C11.732 4.24637 11.9299 4.1665 12.166 4.1665H15.4993C15.7355 4.1665 15.9334 4.24637 16.0931 4.40609C16.2528 4.56581 16.3327 4.76373 16.3327 4.99984V8.33317C16.3327 8.56928 16.2528 8.7672 16.0931 8.92692C15.9334 9.08664 15.7355 9.1665 15.4993 9.1665C15.2632 9.1665 15.0653 9.08664 14.9056 8.92692C14.7459 8.7672 14.666 8.56928 14.666 8.33317V5.83317Z" fill="black" fill-opacity="0.56"/>
</g>
</g>
</svg>
