<svg width="20" height="20" viewBox="0 0 20 20" fill="none" xmlns="http://www.w3.org/2000/svg">
<g id="Icon">
<mask id="mask0_8207_77704" style="mask-type:alpha" maskUnits="userSpaceOnUse" x="0" y="0" width="20" height="20">
<rect id="Bounding box" width="20" height="20" fill="#D9D9D9"/>
</mask>
<g mask="url(#mask0_8207_77704)">
<path id="visibility" d="M9.99935 13.491C10.9706 13.491 11.7962 13.1511 12.476 12.4712C13.1559 11.7913 13.4959 10.9657 13.4959 9.9945C13.4959 9.02325 13.1559 8.19768 12.476 7.51781C11.7962 6.83793 10.9706 6.49799 9.99935 6.49799C9.0281 6.49799 8.20253 6.83793 7.52266 7.51781C6.84278 8.19768 6.50285 9.02325 6.50285 9.9945C6.50285 10.9657 6.84278 11.7913 7.52266 12.4712C8.20253 13.1511 9.0281 13.491 9.99935 13.491ZM9.99935 12.0924C9.4166 12.0924 8.92126 11.8884 8.51333 11.4805C8.10541 11.0726 7.90145 10.5772 7.90145 9.9945C7.90145 9.41175 8.10541 8.91641 8.51333 8.50848C8.92126 8.10056 9.4166 7.8966 9.99935 7.8966C10.5821 7.8966 11.0774 8.10056 11.4854 8.50848C11.8933 8.91641 12.0973 9.41175 12.0973 9.9945C12.0973 10.5772 11.8933 11.0726 11.4854 11.4805C11.0774 11.8884 10.5821 12.0924 9.99935 12.0924ZM9.99935 15.822C8.26405 15.822 6.68091 15.3558 5.24993 14.4234C3.81896 13.491 2.68907 12.2608 1.86027 10.7326C1.79552 10.6161 1.74695 10.4963 1.71458 10.3733C1.6822 10.2503 1.66602 10.124 1.66602 9.9945C1.66602 9.865 1.6822 9.73874 1.71458 9.61571C1.74695 9.49269 1.79552 9.3729 1.86027 9.25635C2.68907 7.72825 3.81896 6.49799 5.24993 5.56559C6.68091 4.63319 8.26405 4.16699 9.99935 4.16699C11.7347 4.16699 13.3178 4.63319 14.7488 5.56559C16.1797 6.49799 17.3096 7.72825 18.1384 9.25635C18.2032 9.3729 18.2517 9.49269 18.2841 9.61571C18.3165 9.73874 18.3327 9.865 18.3327 9.9945C18.3327 10.124 18.3165 10.2503 18.2841 10.3733C18.2517 10.4963 18.2032 10.6161 18.1384 10.7326C17.3096 12.2608 16.1797 13.491 14.7488 14.4234C13.3178 15.3558 11.7347 15.822 9.99935 15.822ZM9.99935 14.268C11.4627 14.268 12.8063 13.8827 14.03 13.1122C15.2538 12.3417 16.1895 11.3024 16.837 9.9945C16.1895 8.68655 15.2538 7.64731 14.03 6.87678C12.8063 6.10626 11.4627 5.72099 9.99935 5.72099C8.536 5.72099 7.19243 6.10626 5.96866 6.87678C4.74488 7.64731 3.80924 8.68655 3.16174 9.9945C3.80924 11.3024 4.74488 12.3417 5.96866 13.1122C7.19243 13.8827 8.536 14.268 9.99935 14.268Z" fill="black" fill-opacity="0.56"/>
</g>
</g>
</svg>
