<svg width="20" height="20" viewBox="0 0 20 20" fill="none" xmlns="http://www.w3.org/2000/svg">
<g id="Icon">
<mask id="mask0_16263_325364" style="mask-type:alpha" maskUnits="userSpaceOnUse" x="0" y="0" width="20" height="20">
<rect id="Bounding box" width="20" height="20" fill="#D9D9D9"/>
</mask>
<g mask="url(#mask0_16263_325364)">
<path id="data_loss_prevention" d="M9.06186 15.4206C7.25836 15.4206 5.73077 14.7948 4.47909 13.5431C3.2274 12.2914 2.60156 10.7638 2.60156 8.9603C2.60156 7.1568 3.2274 5.62921 4.47909 4.37752C5.73077 3.12584 7.25836 2.5 9.06186 2.5C10.8654 2.5 12.3929 3.12584 13.6446 4.37752C14.8963 5.62921 15.5222 7.1568 15.5222 8.9603C15.5222 9.714 15.401 10.424 15.1588 11.0902C14.9165 11.7564 14.58 12.3654 14.1493 12.9172L17.3795 16.1474C17.5275 16.2954 17.6016 16.4838 17.6016 16.7127C17.6016 16.9415 17.5275 17.1299 17.3795 17.2779C17.2314 17.426 17.043 17.5 16.8142 17.5C16.5854 17.5 16.397 17.426 16.2489 17.2779L13.0188 14.0478C12.467 14.4785 11.858 14.8149 11.1917 15.0572C10.5255 15.2995 9.81556 15.4206 9.06186 15.4206ZM9.06186 13.8055C10.4078 13.8055 11.5518 13.3345 12.4939 12.3923C13.436 11.4502 13.9071 10.3062 13.9071 8.9603C13.9071 7.6144 13.436 6.47039 12.4939 5.52826C11.5518 4.58614 10.4078 4.11507 9.06186 4.11507C7.71596 4.11507 6.57195 4.58614 5.62983 5.52826C4.6877 6.47039 4.21664 7.6144 4.21664 8.9603C4.21664 10.3062 4.6877 11.4502 5.62983 12.3923C6.57195 13.3345 7.71596 13.8055 9.06186 13.8055Z" fill="#2574C2"/>
</g>
</g>
</svg>
