<svg width="20" height="20" viewBox="0 0 20 20" fill="none" xmlns="http://www.w3.org/2000/svg">
<mask id="mask0_6056_2236" style="mask-type:alpha" maskUnits="userSpaceOnUse" x="0" y="0" width="20" height="20">
<rect width="20" height="20" fill="#D9D9D9"/>
</mask>
<g mask="url(#mask0_6056_2236)">
<path d="M0.833984 14.333C0.833984 13.8608 0.955512 13.4268 1.19857 13.0309C1.44162 12.6351 1.76454 12.333 2.16732 12.1247C3.02843 11.6941 3.90343 11.3712 4.79232 11.1559C5.68121 10.9406 6.58398 10.833 7.50065 10.833C8.41732 10.833 9.3201 10.9406 10.209 11.1559C11.0979 11.3712 11.9729 11.6941 12.834 12.1247C13.2368 12.333 13.5597 12.6351 13.8027 13.0309C14.0458 13.4268 14.1673 13.8608 14.1673 14.333V14.9997C14.1673 15.458 14.0041 15.8504 13.6777 16.1768C13.3513 16.5031 12.959 16.6663 12.5007 16.6663H2.50065C2.04232 16.6663 1.64996 16.5031 1.32357 16.1768C0.997179 15.8504 0.833984 15.458 0.833984 14.9997V14.333ZM7.50065 9.99967C6.58398 9.99967 5.79926 9.67329 5.14648 9.02051C4.49371 8.36773 4.16732 7.58301 4.16732 6.66634C4.16732 5.74967 4.49371 4.96495 5.14648 4.31217C5.79926 3.6594 6.58398 3.33301 7.50065 3.33301C8.41732 3.33301 9.20204 3.6594 9.85482 4.31217C10.5076 4.96495 10.834 5.74967 10.834 6.66634C10.834 7.58301 10.5076 8.36773 9.85482 9.02051C9.20204 9.67329 8.41732 9.99967 7.50065 9.99967Z" fill="#2574C2"/>
<path opacity="0.5" d="M15.3757 16.6663C15.5284 16.4163 15.643 16.149 15.7194 15.8643C15.7958 15.5795 15.834 15.2913 15.834 14.9997V14.1663C15.834 13.5552 15.6638 12.9684 15.3236 12.4059C14.9833 11.8434 14.5007 11.3608 13.8757 10.958C14.584 11.0413 15.2507 11.1837 15.8757 11.3851C16.5007 11.5865 17.084 11.833 17.6256 12.1247C18.1256 12.4025 18.5076 12.7115 18.7715 13.0518C19.0354 13.392 19.1673 13.7636 19.1673 14.1663V14.9997C19.1673 15.458 19.0041 15.8504 18.6777 16.1768C18.3513 16.5031 17.959 16.6663 17.5007 16.6663H15.3757ZM15.834 6.66634C15.834 7.58301 15.5076 8.36773 14.8548 9.02051C14.202 9.67329 13.4173 9.99967 12.5007 9.99967C12.3479 9.99967 12.1534 9.98231 11.9173 9.94759C11.6812 9.91287 11.4868 9.87467 11.334 9.83301C11.709 9.38856 11.9972 8.89551 12.1986 8.35384C12.4 7.81217 12.5007 7.24967 12.5007 6.66634C12.5007 6.08301 12.4 5.52051 12.1986 4.97884C11.9972 4.43717 11.709 3.94412 11.334 3.49967C11.5284 3.43023 11.7229 3.38509 11.9173 3.36426C12.1118 3.34342 12.3062 3.33301 12.5007 3.33301C13.4173 3.33301 14.202 3.6594 14.8548 4.31217C15.5076 4.96495 15.834 5.74967 15.834 6.66634Z" fill="#2574C2"/>
</g>
</svg>
