<svg width="40" height="40" viewBox="0 0 40 40" fill="none" xmlns="http://www.w3.org/2000/svg">
<path d="M20 40C31.0457 40 40 31.0457 40 20C40 8.95431 31.0457 0 20 0C8.9543 0 0 8.95431 0 20C0 31.0457 8.9543 40 20 40Z" fill="#9DC4EC"/>
<path d="M19.9993 19.9993C22.0084 19.9993 23.6357 18.372 23.6357 16.3629C23.6357 14.3538 22.0084 12.7266 19.9993 12.7266C17.9902 12.7266 16.3629 14.3538 16.3629 16.3629C16.3629 18.372 17.9902 19.9993 19.9993 19.9993ZM19.9993 21.8175C17.572 21.8175 12.7266 23.0357 12.7266 25.4538V27.272H27.272V25.4538C27.272 23.0357 22.4266 21.8175 19.9993 21.8175Z" fill="white"/>
</svg>
