<svg width="40" height="40" viewBox="0 0 40 40" fill="none" xmlns="http://www.w3.org/2000/svg">
<path d="M20 40C31.0457 40 40 31.0457 40 20C40 8.95431 31.0457 0 20 0C8.9543 0 0 8.95431 0 20C0 31.0457 8.9543 40 20 40Z" fill="#2574C2"/>
<path d="M20.053 23.1429C21.0054 23.1429 21.8149 22.8095 22.4816 22.1429C23.1483 21.4762 23.4816 20.6667 23.4816 19.7143C23.4816 18.7619 23.1483 17.9524 22.4816 17.2857C21.8149 16.619 21.0054 16.2857 20.053 16.2857C19.1006 16.2857 18.2911 16.619 17.6244 17.2857C16.9578 17.9524 16.6244 18.7619 16.6244 19.7143C16.6244 20.6667 16.9578 21.4762 17.6244 22.1429C18.2911 22.8095 19.1006 23.1429 20.053 23.1429ZM20.053 24.2857C18.9483 24.2857 17.8768 24.4429 16.8387 24.7571C15.8006 25.0714 14.8149 25.5238 13.8816 26.1143C13.653 26.2476 13.4816 26.4286 13.3673 26.6571C13.253 26.8857 13.1959 27.1333 13.1959 27.4V27.7143H26.9102V27.4C26.9102 27.1333 26.853 26.8857 26.7387 26.6571C26.6244 26.4286 26.453 26.2476 26.2244 26.1143C25.2911 25.5238 24.3054 25.0714 23.2673 24.7571C22.2292 24.4429 21.1578 24.2857 20.053 24.2857ZM13.1959 30C12.5673 30 12.0292 29.7762 11.5816 29.3286C11.134 28.881 10.9102 28.3429 10.9102 27.7143V17.4286C10.9102 17.0667 10.9911 16.7238 11.153 16.4C11.3149 16.0762 11.5387 15.8095 11.8244 15.6L18.6816 10.4571C19.0816 10.1524 19.5387 10 20.053 10C20.5673 10 21.0244 10.1524 21.4244 10.4571L28.2816 15.6C28.5673 15.8095 28.7911 16.0762 28.953 16.4C29.1149 16.7238 29.1959 17.0667 29.1959 17.4286V27.7143C29.1959 28.3429 28.9721 28.881 28.5244 29.3286C28.0768 29.7762 27.5387 30 26.9102 30H13.1959Z" fill="white"/>
</svg>
