<svg width="16" height="16" viewBox="0 0 16 16" fill="none" xmlns="http://www.w3.org/2000/svg">
<mask id="mask0_17631_20467" style="mask-type:alpha" maskUnits="userSpaceOnUse" x="0" y="0" width="16" height="16">
<rect width="16" height="16" fill="#D9D9D9"/>
</mask>
<g mask="url(#mask0_17631_20467)">
<path d="M3.2 12.932C2.87 12.932 2.5875 12.8145 2.3525 12.5795C2.1175 12.3445 2 12.062 2 11.732V4.53203C2 4.20203 2.1175 3.91953 2.3525 3.68453C2.5875 3.44953 2.87 3.33203 3.2 3.33203H12.8C13.13 3.33203 13.4125 3.44953 13.6475 3.68453C13.8825 3.91953 14 4.20203 14 4.53203V11.732C14 12.062 13.8825 12.3445 13.6475 12.5795C13.4125 12.8145 13.13 12.932 12.8 12.932H3.2ZM12.8 5.73203L8.315 8.53703C8.265 8.56703 8.2125 8.58953 8.1575 8.60453C8.1025 8.61953 8.05 8.62703 8 8.62703C7.95 8.62703 7.8975 8.61953 7.8425 8.60453C7.7875 8.58953 7.735 8.56703 7.685 8.53703L3.2 5.73203V11.732H12.8V5.73203ZM8 7.53203L12.8 4.53203H3.2L8 7.53203ZM3.2 5.88203V4.99703V5.01203V5.00453V5.88203Z" fill="black" fill-opacity="0.56"/>
</g>
</svg>
