<svg width="20" height="20" viewBox="0 0 20 20" fill="none" xmlns="http://www.w3.org/2000/svg">
<g id="Icon">
<mask id="mask0_16698_90330" style="mask-type:alpha" maskUnits="userSpaceOnUse" x="0" y="0" width="20" height="20">
<rect id="Bounding box" width="20" height="20" fill="#D9D9D9"/>
</mask>
<g mask="url(#mask0_16698_90330)">
<path id="collapse_content" d="M7.5013 12.4998H5.0013C4.76519 12.4998 4.56727 12.42 4.40755 12.2603C4.24783 12.1005 4.16797 11.9026 4.16797 11.6665C4.16797 11.4304 4.24783 11.2325 4.40755 11.0728C4.56727 10.913 4.76519 10.8332 5.0013 10.8332H8.33464C8.57075 10.8332 8.76866 10.913 8.92839 11.0728C9.08811 11.2325 9.16797 11.4304 9.16797 11.6665V14.9998C9.16797 15.2359 9.08811 15.4339 8.92839 15.5936C8.76866 15.7533 8.57075 15.8332 8.33464 15.8332C8.09852 15.8332 7.90061 15.7533 7.74089 15.5936C7.58116 15.4339 7.5013 15.2359 7.5013 14.9998V12.4998ZM12.5013 7.49984H15.0013C15.2374 7.49984 15.4353 7.5797 15.5951 7.73942C15.7548 7.89914 15.8346 8.09706 15.8346 8.33317C15.8346 8.56928 15.7548 8.7672 15.5951 8.92692C15.4353 9.08664 15.2374 9.1665 15.0013 9.1665H11.668C11.4319 9.1665 11.2339 9.08664 11.0742 8.92692C10.9145 8.7672 10.8346 8.56928 10.8346 8.33317V4.99984C10.8346 4.76373 10.9145 4.56581 11.0742 4.40609C11.2339 4.24637 11.4319 4.1665 11.668 4.1665C11.9041 4.1665 12.102 4.24637 12.2617 4.40609C12.4214 4.56581 12.5013 4.76373 12.5013 4.99984V7.49984Z" fill="black" fill-opacity="0.56"/>
</g>
</g>
</svg>
