<svg width="18" height="18" viewBox="0 0 18 18" fill="none" xmlns="http://www.w3.org/2000/svg">
<g id="Group 6">
<path id="Vector" opacity="0.5" d="M15.2484 4.14062H11.7734V17.3323H17.3318V6.22396C17.3318 5.07396 16.3984 4.14062 15.2484 4.14062ZM15.2484 13.8573H13.8568V12.4656H15.2484V13.8573ZM15.2484 11.0823H13.8568V9.69062H15.2484V11.0823ZM15.2484 8.30729H13.8568V6.91562H15.2484V8.30729Z" fill="#2574C2"/>
<path id="Vector_2" d="M8.30768 0.666016H2.74935C1.59935 0.666016 0.666016 1.59935 0.666016 2.74935V17.3327H10.391V2.74935C10.391 1.59935 9.45768 0.666016 8.30768 0.666016ZM4.83268 13.8577H2.74935V12.466H4.83268V13.8577ZM4.83268 11.0827H2.74935V9.69102H4.83268V11.0827ZM4.83268 8.30768H2.74935V6.91602H4.83268V8.30768ZM4.83268 5.52435H2.74935V4.13268H4.83268V5.52435ZM8.30768 13.8577H6.22435V12.466H8.30768V13.8577ZM8.30768 11.0827H6.22435V9.69102H8.30768V11.0827ZM8.30768 8.30768H6.22435V6.91602H8.30768V8.30768ZM8.30768 5.52435H6.22435V4.13268H8.30768V5.52435Z" fill="#2574C2"/>
</g>
</svg>
