<svg width="37" height="36" viewBox="0 0 37 36" fill="none" xmlns="http://www.w3.org/2000/svg">
<g id="person_import_ASF">
<mask id="mask0_16300_158144" style="mask-type:alpha" maskUnits="userSpaceOnUse" x="0" y="0" width="37" height="36">
<rect id="Bounding box" x="0.5" width="36" height="36" fill="#D9D9D9"/>
</mask>
<g mask="url(#mask0_16300_158144)">
<g id="Vector">
<path d="M13.6257 18.7781C12.0272 18.7781 10.6587 18.2089 9.52037 17.0706C8.38202 15.9322 7.81284 14.5638 7.81284 12.9653C7.81284 11.3667 8.38202 9.9983 9.52037 8.85995C10.6587 7.7216 12.0272 7.15243 13.6257 7.15243C15.2242 7.15243 16.5927 7.7216 17.731 8.85995C18.8694 9.9983 19.4385 11.3667 19.4385 12.9653C19.4385 14.5638 18.8694 15.9322 17.731 17.0706C16.5927 18.2089 15.2242 18.7781 13.6257 18.7781ZM2 27.4974V26.3348C2 25.5113 2.21193 24.7544 2.63578 24.0642C3.05963 23.3739 3.62275 22.8471 4.32514 22.4838C5.82679 21.733 7.35266 21.1699 8.90275 20.7944C10.4528 20.419 12.0272 20.2313 13.6257 20.2313C15.2242 20.2313 16.7985 20.419 18.3486 20.7944C19.8987 21.1699 21.4246 21.733 22.9262 22.4838C23.6286 22.8471 24.1917 23.3739 24.6156 24.0642C25.0394 24.7544 25.2514 25.5113 25.2514 26.3348V27.4974C25.2514 28.2966 24.9668 28.9809 24.3976 29.55C23.8284 30.1192 23.1442 30.4038 22.3449 30.4038H4.90642C4.10716 30.4038 3.42294 30.1192 2.85376 29.55C2.28459 28.9809 2 28.2966 2 27.4974ZM4.90642 27.4974H22.3449V26.3348C22.3449 26.0684 22.2783 25.8262 22.1451 25.6082C22.0119 25.3902 21.8363 25.2207 21.6183 25.0996C20.3105 24.4456 18.9905 23.9552 17.6583 23.6282C16.3262 23.3012 14.982 23.1377 13.6257 23.1377C12.2694 23.1377 10.9251 23.3012 9.59303 23.6282C8.26092 23.9552 6.94092 24.4456 5.63303 25.0996C5.41504 25.2207 5.23945 25.3902 5.10624 25.6082C4.97303 25.8262 4.90642 26.0684 4.90642 26.3348V27.4974ZM13.6257 15.8717C14.425 15.8717 15.1092 15.5871 15.6783 15.0179C16.2475 14.4488 16.5321 13.7645 16.5321 12.9653C16.5321 12.166 16.2475 11.4818 15.6783 10.9126C15.1092 10.3434 14.425 10.0589 13.6257 10.0589C12.8264 10.0589 12.1422 10.3434 11.573 10.9126C11.0039 11.4818 10.7193 12.166 10.7193 12.9653C10.7193 13.7645 11.0039 14.4488 11.573 15.0179C12.1422 15.5871 12.8264 15.8717 13.6257 15.8717Z" fill="#2574C2" fill-opacity="0.3"/>
<path d="M28.5211 14.6001V6.78913C28.5211 6.48637 28.6271 6.22904 28.839 6.01711C29.0509 5.80518 29.3083 5.69922 29.611 5.69922C29.9138 5.69922 30.1711 5.80518 30.383 6.01711C30.595 6.22904 30.7009 6.48637 30.7009 6.78913V14.6001L33.1229 12.1781C33.345 11.9561 33.6023 11.8451 33.895 11.8451C34.1876 11.8451 34.445 11.9561 34.667 12.1781C34.889 12.4001 35 12.6575 35 12.9501C35 13.2428 34.889 13.5001 34.667 13.7222L30.3679 18.0212C30.1459 18.2433 29.8936 18.3543 29.611 18.3543C29.3284 18.3543 29.0761 18.2433 28.8541 18.0212L24.555 13.7222C24.333 13.5001 24.2271 13.2428 24.2372 12.9501C24.2472 12.6575 24.3633 12.4001 24.5853 12.1781C24.8073 11.9561 25.0647 11.8451 25.3573 11.8451C25.65 11.8451 25.9073 11.9561 26.1294 12.1781L28.5211 14.6001Z" fill="#2574C2" fill-opacity="0.3"/>
</g>
</g>
</g>
</svg>
