<svg width="20" height="20" viewBox="0 0 20 20" fill="none" xmlns="http://www.w3.org/2000/svg">
<g id="report_new_issue_outlined_for_hover_ASF">
<mask id="mask0_8240_169024" style="mask-type:alpha" maskUnits="userSpaceOnUse" x="0" y="0" width="20" height="20">
<rect id="Bounding box" width="20" height="20" fill="#D9D9D9"/>
</mask>
<g mask="url(#mask0_8240_169024)">
<path id="add_comment" d="M9.16797 9.16699V10.8337C9.16797 11.0698 9.24783 11.2677 9.40755 11.4274C9.56727 11.5871 9.76519 11.667 10.0013 11.667C10.2374 11.667 10.4353 11.5871 10.5951 11.4274C10.7548 11.2677 10.8346 11.0698 10.8346 10.8337V9.16699H12.5013C12.7374 9.16699 12.9353 9.08713 13.0951 8.92741C13.2548 8.76769 13.3346 8.56977 13.3346 8.33366C13.3346 8.09755 13.2548 7.89963 13.0951 7.73991C12.9353 7.58019 12.7374 7.50033 12.5013 7.50033H10.8346V5.83366C10.8346 5.59755 10.7548 5.39963 10.5951 5.23991C10.4353 5.08019 10.2374 5.00033 10.0013 5.00033C9.76519 5.00033 9.56727 5.08019 9.40755 5.23991C9.24783 5.39963 9.16797 5.59755 9.16797 5.83366V7.50033H7.5013C7.26519 7.50033 7.06727 7.58019 6.90755 7.73991C6.74783 7.89963 6.66797 8.09755 6.66797 8.33366C6.66797 8.56977 6.74783 8.76769 6.90755 8.92741C7.06727 9.08713 7.26519 9.16699 7.5013 9.16699H9.16797ZM5.0013 15.0003L3.08464 16.917C2.82075 17.1809 2.51866 17.2399 2.17839 17.0941C1.83811 16.9482 1.66797 16.6878 1.66797 16.3128V3.33366C1.66797 2.87533 1.83116 2.48296 2.15755 2.15658C2.48394 1.83019 2.8763 1.66699 3.33464 1.66699H16.668C17.1263 1.66699 17.5187 1.83019 17.8451 2.15658C18.1714 2.48296 18.3346 2.87533 18.3346 3.33366V13.3337C18.3346 13.792 18.1714 14.1844 17.8451 14.5107C17.5187 14.8371 17.1263 15.0003 16.668 15.0003H5.0013ZM4.29297 13.3337H16.668V3.33366H3.33464V14.2712L4.29297 13.3337Z" fill="black" fill-opacity="0.56"/>
</g>
</g>
</svg>
