<svg width="24" height="24" viewBox="0 0 24 24" fill="none" xmlns="http://www.w3.org/2000/svg">
<g id="report_new_issue_outlined_for_hover_ASF">
<mask id="mask0_7991_33532" style="mask-type:alpha" maskUnits="userSpaceOnUse" x="0" y="0" width="24" height="24">
<rect id="Bounding box" width="24" height="24" fill="#D9D9D9"/>
</mask>
<g mask="url(#mask0_7991_33532)">
<path id="add_comment" d="M11 11V13C11 13.2833 11.0958 13.5208 11.2875 13.7125C11.4792 13.9042 11.7167 14 12 14C12.2833 14 12.5208 13.9042 12.7125 13.7125C12.9042 13.5208 13 13.2833 13 13V11H15C15.2833 11 15.5208 10.9042 15.7125 10.7125C15.9042 10.5208 16 10.2833 16 10C16 9.71667 15.9042 9.47917 15.7125 9.2875C15.5208 9.09583 15.2833 9 15 9H13V7C13 6.71667 12.9042 6.47917 12.7125 6.2875C12.5208 6.09583 12.2833 6 12 6C11.7167 6 11.4792 6.09583 11.2875 6.2875C11.0958 6.47917 11 6.71667 11 7V9H9C8.71667 9 8.47917 9.09583 8.2875 9.2875C8.09583 9.47917 8 9.71667 8 10C8 10.2833 8.09583 10.5208 8.2875 10.7125C8.47917 10.9042 8.71667 11 9 11H11ZM6 18L3.7 20.3C3.38333 20.6167 3.02083 20.6875 2.6125 20.5125C2.20417 20.3375 2 20.025 2 19.575V4C2 3.45 2.19583 2.97917 2.5875 2.5875C2.97917 2.19583 3.45 2 4 2H20C20.55 2 21.0208 2.19583 21.4125 2.5875C21.8042 2.97917 22 3.45 22 4V16C22 16.55 21.8042 17.0208 21.4125 17.4125C21.0208 17.8042 20.55 18 20 18H6ZM5.15 16H20V4H4V17.125L5.15 16Z" fill="black" fill-opacity="0.56"/>
</g>
</g>
</svg>
