<svg width="21" height="20" viewBox="0 0 21 20" fill="none" xmlns="http://www.w3.org/2000/svg">
<g id="lan_filled_ASF">
<mask id="mask0_7730_87387" style="mask-type:alpha" maskUnits="userSpaceOnUse" x="0" y="0" width="21" height="20">
<rect id="Bounding box" x="0.333984" width="20" height="20" fill="#D9D9D9"/>
</mask>
<g mask="url(#mask0_7730_87387)">
<path id="Vector" d="M17.8346 13.791V11.516C17.8346 10.266 16.8096 9.24102 15.5596 9.24102H11.018V6.20768H12.0346C12.3096 6.20768 12.5346 5.98268 12.5346 5.70768V2.16602C12.5346 1.89102 12.3096 1.66602 12.0346 1.66602H8.49297C8.21797 1.66602 7.99297 1.89102 7.99297 2.16602V5.70768C7.99297 5.98268 8.21797 6.20768 8.49297 6.20768H9.50964V9.24102H4.95964C3.70964 9.24102 2.68464 10.266 2.68464 11.516V13.791H1.66797C1.39297 13.791 1.16797 14.016 1.16797 14.291V17.8327C1.16797 18.1077 1.39297 18.3327 1.66797 18.3327H5.20964C5.48464 18.3327 5.70964 18.1077 5.70964 17.8327V14.291C5.70964 14.016 5.48464 13.791 5.20964 13.791H4.2013V11.516C4.2013 11.0993 4.54297 10.7577 4.95964 10.7577H9.5013V13.791H8.48464C8.20964 13.791 7.98464 14.016 7.98464 14.291V17.8327C7.98464 18.1077 8.20964 18.3327 8.48464 18.3327H12.0263C12.3013 18.3327 12.5263 18.1077 12.5263 17.8327V14.291C12.5263 14.016 12.3013 13.791 12.0263 13.791H11.0096V10.7577H15.5513C15.968 10.7577 16.3096 11.0993 16.3096 11.516V13.791H15.3096C15.0346 13.791 14.8096 14.016 14.8096 14.291V17.8327C14.8096 18.1077 15.0346 18.3327 15.3096 18.3327H18.8513C19.1263 18.3327 19.3513 18.1077 19.3513 17.8327V14.291C19.3513 14.016 19.1263 13.791 18.8513 13.791H17.8346Z" fill="#2574C2"/>
</g>
</g>
</svg>
