<svg width="21" height="20" viewBox="0 0 21 20" fill="none" xmlns="http://www.w3.org/2000/svg">
<g id="lan_filled_ASF">
<mask id="mask0_7730_87402" style="mask-type:alpha" maskUnits="userSpaceOnUse" x="0" y="0" width="21" height="20">
<rect id="Bounding box" x="0.667969" width="20" height="20" fill="#D9D9D9"/>
</mask>
<g mask="url(#mask0_7730_87402)">
<path id="Vector" d="M18.1686 13.791V11.516C18.1686 10.266 17.1436 9.24102 15.8936 9.24102H11.352V6.20768H12.3686C12.6436 6.20768 12.8686 5.98268 12.8686 5.70768V2.16602C12.8686 1.89102 12.6436 1.66602 12.3686 1.66602H8.82695C8.55195 1.66602 8.32695 1.89102 8.32695 2.16602V5.70768C8.32695 5.98268 8.55195 6.20768 8.82695 6.20768H9.84362V9.24102H5.29362C4.04362 9.24102 3.01862 10.266 3.01862 11.516V13.791H2.00195C1.72695 13.791 1.50195 14.016 1.50195 14.291V17.8327C1.50195 18.1077 1.72695 18.3327 2.00195 18.3327H5.54362C5.81862 18.3327 6.04362 18.1077 6.04362 17.8327V14.291C6.04362 14.016 5.81862 13.791 5.54362 13.791H4.53529V11.516C4.53529 11.0993 4.87695 10.7577 5.29362 10.7577H9.83529V13.791H8.81862C8.54362 13.791 8.31862 14.016 8.31862 14.291V17.8327C8.31862 18.1077 8.54362 18.3327 8.81862 18.3327H12.3603C12.6353 18.3327 12.8603 18.1077 12.8603 17.8327V14.291C12.8603 14.016 12.6353 13.791 12.3603 13.791H11.3436V10.7577H15.8853C16.302 10.7577 16.6436 11.0993 16.6436 11.516V13.791H15.6436C15.3686 13.791 15.1436 14.016 15.1436 14.291V17.8327C15.1436 18.1077 15.3686 18.3327 15.6436 18.3327H19.1853C19.4603 18.3327 19.6853 18.1077 19.6853 17.8327V14.291C19.6853 14.016 19.4603 13.791 19.1853 13.791H18.1686Z" fill="#4CAF50"/>
</g>
</g>
</svg>
