<svg width="20" height="20" viewBox="0 0 20 20" fill="none" xmlns="http://www.w3.org/2000/svg">
<g id="lan_filled_ASF">
<mask id="mask0_7730_87417" style="mask-type:alpha" maskUnits="userSpaceOnUse" x="0" y="0" width="20" height="20">
<rect id="Bounding box" width="20" height="20" fill="#D9D9D9"/>
</mask>
<g mask="url(#mask0_7730_87417)">
<path id="Vector" d="M17.5007 13.791V11.516C17.5007 10.266 16.4756 9.24102 15.2256 9.24102H10.684V6.20768H11.7007C11.9757 6.20768 12.2007 5.98268 12.2007 5.70768V2.16602C12.2007 1.89102 11.9757 1.66602 11.7007 1.66602H8.15898C7.88398 1.66602 7.65898 1.89102 7.65898 2.16602V5.70768C7.65898 5.98268 7.88398 6.20768 8.15898 6.20768H9.17565V9.24102H4.62565C3.37565 9.24102 2.35065 10.266 2.35065 11.516V13.791H1.33398C1.05898 13.791 0.833984 14.016 0.833984 14.291V17.8327C0.833984 18.1077 1.05898 18.3327 1.33398 18.3327H4.87565C5.15065 18.3327 5.37565 18.1077 5.37565 17.8327V14.291C5.37565 14.016 5.15065 13.791 4.87565 13.791H3.86732V11.516C3.86732 11.0993 4.20898 10.7577 4.62565 10.7577H9.16732V13.791H8.15065C7.87565 13.791 7.65065 14.016 7.65065 14.291V17.8327C7.65065 18.1077 7.87565 18.3327 8.15065 18.3327H11.6923C11.9673 18.3327 12.1923 18.1077 12.1923 17.8327V14.291C12.1923 14.016 11.9673 13.791 11.6923 13.791H10.6757V10.7577H15.2173C15.634 10.7577 15.9757 11.0993 15.9757 11.516V13.791H14.9757C14.7007 13.791 14.4756 14.016 14.4756 14.291V17.8327C14.4756 18.1077 14.7007 18.3327 14.9757 18.3327H18.5173C18.7923 18.3327 19.0173 18.1077 19.0173 17.8327V14.291C19.0173 14.016 18.7923 13.791 18.5173 13.791H17.5007Z" fill="#D32F2F"/>
</g>
</g>
</svg>
