<svg width="20" height="21" viewBox="0 0 20 21" fill="none" xmlns="http://www.w3.org/2000/svg">
<mask id="mask0_6078_12724" style="mask-type:alpha" maskUnits="userSpaceOnUse" x="1" y="2" width="18" height="17">
<rect x="1.66797" y="2.16699" width="16.6667" height="16.6667" fill="#D9D9D9"/>
</mask>
<g mask="url(#mask0_6078_12724)">
<path d="M9.99505 13.833C10.1711 13.833 10.3199 13.7731 10.4414 13.6533C10.5629 13.5335 10.6237 13.3851 10.6237 13.208V10.2913C10.6237 10.1143 10.5641 9.96582 10.4451 9.84603C10.326 9.72624 10.1784 9.66634 10.0023 9.66634C9.8263 9.66634 9.67752 9.72624 9.55599 9.84603C9.43446 9.96582 9.3737 10.1143 9.3737 10.2913V13.208C9.3737 13.3851 9.43325 13.5335 9.55234 13.6533C9.67144 13.7731 9.81901 13.833 9.99505 13.833ZM9.99505 8.41634C10.1711 8.41634 10.3199 8.35679 10.4414 8.2377C10.5629 8.1186 10.6237 7.97103 10.6237 7.79499C10.6237 7.61895 10.5641 7.47016 10.4451 7.34863C10.326 7.2271 10.1784 7.16634 10.0023 7.16634C9.8263 7.16634 9.67752 7.22589 9.55599 7.34499C9.43446 7.46408 9.3737 7.61165 9.3737 7.78769C9.3737 7.96374 9.43325 8.11252 9.55234 8.23405C9.67144 8.35558 9.81901 8.41634 9.99505 8.41634ZM10.0036 17.1663C9.08597 17.1663 8.22208 16.9927 7.41189 16.6455C6.60171 16.2983 5.8928 15.8209 5.28516 15.2132C4.67752 14.6056 4.20009 13.8969 3.85286 13.0872C3.50564 12.2775 3.33203 11.4123 3.33203 10.4917C3.33203 9.57109 3.50564 8.70859 3.85286 7.90419C4.20009 7.09979 4.67752 6.39377 5.28516 5.78613C5.8928 5.17849 6.60148 4.70106 7.4112 4.35384C8.22092 4.00662 9.08608 3.83301 10.0067 3.83301C10.9273 3.83301 11.7898 4.00662 12.5942 4.35384C13.3986 4.70106 14.1046 5.17849 14.7122 5.78613C15.3199 6.39377 15.7973 7.10106 16.1445 7.90801C16.4918 8.71507 16.6654 9.57734 16.6654 10.4948C16.6654 11.4124 16.4918 12.2763 16.1445 13.0865C15.7973 13.8967 15.3199 14.6056 14.7122 15.2132C14.1046 15.8209 13.3973 16.2983 12.5904 16.6455C11.7833 16.9927 10.921 17.1663 10.0036 17.1663ZM9.9987 15.9163C11.5033 15.9163 12.7823 15.3897 13.8355 14.3365C14.8887 13.2832 15.4154 12.0043 15.4154 10.4997C15.4154 8.99504 14.8887 7.71611 13.8355 6.66287C12.7823 5.60963 11.5033 5.08301 9.9987 5.08301C8.49407 5.08301 7.21513 5.60963 6.16189 6.66287C5.10865 7.71611 4.58203 8.99504 4.58203 10.4997C4.58203 12.0043 5.10865 13.2832 6.16189 14.3365C7.21513 15.3897 8.49407 15.9163 9.9987 15.9163Z" fill="black" fill-opacity="0.56"/>
</g>
</svg>
