<svg width="18" height="18" viewBox="0 0 18 18" fill="none" xmlns="http://www.w3.org/2000/svg">
<mask id="mask0_17640_149799" style="mask-type:alpha" maskUnits="userSpaceOnUse" x="0" y="0" width="18" height="18">
<rect width="18" height="18" fill="#D9D9D9"/>
</mask>
<g mask="url(#mask0_17640_149799)">
<path d="M1.5 14.1618V12.7324C1.5 12.2824 1.61581 11.8687 1.84743 11.4915C2.07904 11.1143 2.38676 10.8265 2.77059 10.6279C3.59118 10.2176 4.425 9.90993 5.27206 9.70478C6.11912 9.49963 6.97941 9.39706 7.85294 9.39706C8.34265 9.39706 8.82574 9.42684 9.30221 9.4864C9.77868 9.54596 10.2551 9.64191 10.7316 9.77426L9.40147 11.1243C9.13676 11.0846 8.87868 11.0515 8.62721 11.025C8.37574 10.9985 8.11765 10.9853 7.85294 10.9853C7.11177 10.9853 6.37721 11.0746 5.64926 11.2533C4.92132 11.432 4.2 11.7 3.48529 12.0574C3.36618 12.1235 3.27022 12.2162 3.19743 12.3353C3.12463 12.4544 3.08824 12.5868 3.08824 12.7324V13.3676H7.85294V14.9559H2.29412C2.06912 14.9559 1.88051 14.8798 1.72831 14.7276C1.5761 14.5754 1.5 14.3868 1.5 14.1618ZM9.44118 14.9559V13.9632C9.44118 13.7515 9.48419 13.5496 9.57022 13.3577C9.65625 13.1658 9.77206 12.9971 9.91765 12.8515L13.8287 8.94044C13.9478 8.82132 14.0801 8.73529 14.2257 8.68235C14.3713 8.62941 14.5169 8.60294 14.6625 8.60294C14.8213 8.60294 14.9735 8.63272 15.1191 8.69228C15.2647 8.75184 15.3971 8.84118 15.5162 8.96029L16.2507 9.69485C16.3566 9.81397 16.4393 9.94632 16.4989 10.0919C16.5585 10.2375 16.5882 10.3831 16.5882 10.5287C16.5882 10.6743 16.5618 10.8232 16.5088 10.9754C16.4559 11.1276 16.3699 11.2632 16.2507 11.3824L12.3397 15.2934C12.1941 15.439 12.0254 15.5515 11.8335 15.6309C11.6415 15.7103 11.4397 15.75 11.2279 15.75H10.2353C10.0103 15.75 9.82169 15.6739 9.66949 15.5217C9.51728 15.3695 9.44118 15.1809 9.44118 14.9559ZM10.6324 14.5588H11.3868L13.789 12.1368L13.4316 11.7596L13.0544 11.4022L10.6324 13.8044V14.5588ZM13.4316 11.7596L13.0544 11.4022L13.789 12.1368L13.4316 11.7596ZM7.85294 8.60294C6.97941 8.60294 6.23162 8.29191 5.60956 7.66985C4.9875 7.04779 4.67647 6.3 4.67647 5.42647C4.67647 4.55294 4.9875 3.80515 5.60956 3.18309C6.23162 2.56103 6.97941 2.25 7.85294 2.25C8.72647 2.25 9.47426 2.56103 10.0963 3.18309C10.7184 3.80515 11.0294 4.55294 11.0294 5.42647C11.0294 6.3 10.7184 7.04779 10.0963 7.66985C9.47426 8.29191 8.72647 8.60294 7.85294 8.60294ZM7.85294 7.01471C8.28971 7.01471 8.6636 6.85919 8.97463 6.54816C9.28566 6.23713 9.44118 5.86324 9.44118 5.42647C9.44118 4.98971 9.28566 4.61581 8.97463 4.30478C8.6636 3.99375 8.28971 3.83824 7.85294 3.83824C7.41618 3.83824 7.04228 3.99375 6.73125 4.30478C6.42022 4.61581 6.26471 4.98971 6.26471 5.42647C6.26471 5.86324 6.42022 6.23713 6.73125 6.54816C7.04228 6.85919 7.41618 7.01471 7.85294 7.01471Z" fill="#2574C2"/>
</g>
</svg>
