<svg width="18" height="18" viewBox="0 0 18 18" fill="none" xmlns="http://www.w3.org/2000/svg">
<mask id="mask0_17648_305167" style="mask-type:alpha" maskUnits="userSpaceOnUse" x="0" y="0" width="18" height="18">
<rect width="18" height="18" fill="#D9D9D9"/>
</mask>
<g mask="url(#mask0_17648_305167)">
<path d="M7.92857 2.92857C7.10714 2.92857 6.33929 3.11905 5.625 3.5C4.91071 3.88095 4.30952 4.40476 3.82143 5.07143H5.07143C5.27381 5.07143 5.44345 5.13988 5.58036 5.27679C5.71726 5.41369 5.78571 5.58333 5.78571 5.78571C5.78571 5.9881 5.71726 6.15774 5.58036 6.29464C5.44345 6.43155 5.27381 6.5 5.07143 6.5H2.21429C2.0119 6.5 1.84226 6.43155 1.70536 6.29464C1.56845 6.15774 1.5 5.9881 1.5 5.78571V2.92857C1.5 2.72619 1.56845 2.55655 1.70536 2.41964C1.84226 2.28274 2.0119 2.21429 2.21429 2.21429C2.41667 2.21429 2.58631 2.28274 2.72321 2.41964C2.86012 2.55655 2.92857 2.72619 2.92857 2.92857V3.89286C3.53571 3.13095 4.27679 2.54167 5.15179 2.125C6.02679 1.70833 6.95238 1.5 7.92857 1.5C8.82143 1.5 9.65774 1.66667 10.4375 2C11.2173 2.33333 11.8988 2.79167 12.4821 3.375C12.9821 3.875 13.3929 4.45238 13.7143 5.10714C14.0357 5.76191 14.2381 6.46429 14.3214 7.21429C14.3452 7.41667 14.2857 7.58333 14.1429 7.71429C14 7.84524 13.8274 7.91071 13.625 7.91071C13.4226 7.91071 13.253 7.84524 13.1161 7.71429C12.9792 7.58333 12.8988 7.41667 12.875 7.21429C12.7917 6.66667 12.631 6.15476 12.3929 5.67857C12.1548 5.20238 11.8452 4.77381 11.4643 4.39286C11.0119 3.94048 10.4851 3.58333 9.88393 3.32143C9.28274 3.05952 8.63095 2.92857 7.92857 2.92857ZM2.28571 8.75C2.47619 8.72619 2.64881 8.76191 2.80357 8.85714C2.95833 8.95238 3.06548 9.09524 3.125 9.28571C3.3869 10.25 3.89286 11.0536 4.64286 11.6964C5.39286 12.3393 6.26191 12.7262 7.25 12.8571C7.5 12.8929 7.67857 12.9851 7.78571 13.1339C7.89286 13.2827 7.94643 13.4405 7.94643 13.6071C7.94643 13.7976 7.88393 13.9702 7.75893 14.125C7.63393 14.2798 7.45833 14.3452 7.23214 14.3214C5.91071 14.1667 4.74702 13.6577 3.74107 12.7946C2.73512 11.9315 2.05952 10.8631 1.71429 9.58929C1.65476 9.3869 1.68452 9.20238 1.80357 9.03571C1.92262 8.86905 2.08333 8.77381 2.28571 8.75ZM8.64286 7.64286L9.5 8.5C9.66667 8.66667 9.74107 8.84226 9.72321 9.02679C9.70536 9.21131 9.63095 9.36905 9.5 9.5C9.36905 9.63095 9.21131 9.70536 9.02679 9.72321C8.84226 9.74107 8.66667 9.66667 8.5 9.5L7.42857 8.42857C7.35714 8.35714 7.30357 8.27679 7.26786 8.1875C7.23214 8.09821 7.21429 8.00595 7.21429 7.91071V5.07143C7.21429 4.86905 7.28274 4.6994 7.41964 4.5625C7.55655 4.4256 7.72619 4.35714 7.92857 4.35714C8.13095 4.35714 8.3006 4.4256 8.4375 4.5625C8.57441 4.6994 8.64286 4.86905 8.64286 5.07143V7.64286ZM12.7679 16.5C12.6012 16.5 12.4554 16.4464 12.3304 16.3393C12.2054 16.2321 12.125 16.0952 12.0893 15.9286L11.9821 15.4286C11.8393 15.369 11.7054 15.3065 11.5804 15.2411C11.4554 15.1756 11.3274 15.0952 11.1964 15L10.6786 15.1607C10.5238 15.2083 10.372 15.2024 10.2232 15.1429C10.0744 15.0833 9.95833 14.9881 9.875 14.8571L9.73214 14.6071C9.64881 14.4643 9.61905 14.3095 9.64286 14.1429C9.66667 13.9762 9.74405 13.8393 9.875 13.7321L10.2679 13.3929C10.244 13.2381 10.2321 13.0833 10.2321 12.9286C10.2321 12.7738 10.244 12.619 10.2679 12.4643L9.875 12.125C9.74405 12.0179 9.66667 11.8839 9.64286 11.7232C9.61905 11.5625 9.64881 11.4107 9.73214 11.2679L9.89286 11C9.97619 10.869 10.0893 10.7738 10.2321 10.7143C10.375 10.6548 10.5238 10.6488 10.6786 10.6964L11.1964 10.8571C11.3274 10.7619 11.4554 10.6815 11.5804 10.6161C11.7054 10.5506 11.8393 10.4881 11.9821 10.4286L12.0893 9.91071C12.125 9.74405 12.2054 9.61012 12.3304 9.50893C12.4554 9.40774 12.6012 9.35714 12.7679 9.35714H13.0536C13.2202 9.35714 13.3661 9.41071 13.4911 9.51786C13.6161 9.625 13.6964 9.76191 13.7321 9.92857L13.8393 10.4286C13.9821 10.4881 14.119 10.5565 14.25 10.6339C14.381 10.7113 14.506 10.7976 14.625 10.8929L15.1071 10.7321C15.2738 10.6726 15.4345 10.6726 15.5893 10.7321C15.744 10.7917 15.8631 10.8929 15.9464 11.0357L16.0893 11.2857C16.1726 11.4286 16.2024 11.5833 16.1786 11.75C16.1548 11.9167 16.0774 12.0536 15.9464 12.1607L15.5536 12.5C15.5774 12.6548 15.5893 12.8036 15.5893 12.9464C15.5893 13.0893 15.5774 13.2381 15.5536 13.3929L15.9464 13.7321C16.0774 13.8393 16.1548 13.9732 16.1786 14.1339C16.2024 14.2946 16.1726 14.4464 16.0893 14.5893L15.9286 14.8571C15.8452 14.9881 15.7321 15.0833 15.5893 15.1429C15.4464 15.2024 15.2976 15.2083 15.1429 15.1607L14.625 15C14.494 15.0952 14.3661 15.1756 14.2411 15.2411C14.1161 15.3065 13.9821 15.369 13.8393 15.4286L13.7321 15.9464C13.6964 16.1131 13.6161 16.247 13.4911 16.3482C13.3661 16.4494 13.2202 16.5 13.0536 16.5H12.7679ZM12.9107 14.3571C13.3036 14.3571 13.6399 14.2173 13.9196 13.9375C14.1994 13.6577 14.3393 13.3214 14.3393 12.9286C14.3393 12.5357 14.1994 12.1994 13.9196 11.9196C13.6399 11.6399 13.3036 11.5 12.9107 11.5C12.5179 11.5 12.1815 11.6399 11.9018 11.9196C11.622 12.1994 11.4821 12.5357 11.4821 12.9286C11.4821 13.3214 11.622 13.6577 11.9018 13.9375C12.1815 14.2173 12.5179 14.3571 12.9107 14.3571Z" fill="#2574C2"/>
</g>
</svg>
